<mxfile host="app.diagrams.net" modified="2023-06-16T06:43:29.846Z" agent="Mozilla/5.0 (Macintosh; Intel Mac OS X 10_15_7) AppleWebKit/537.36 (KHTML, like Gecko) Chrome/113.0.0.0 Safari/537.36" version="21.4.0" etag="PABpklaoW3w9iDsAWjQS" type="github">
  <diagram name="第 1 页" id="jssWz0keSt2CL69n8_-D">
    <mxGraphModel>
      <root>
        <mxCell id="0" />
        <mxCell id="1" parent="0" />
      </root>
    </mxGraphModel>
  </diagram>
</mxfile>
